<mxfile modified="2024-01-06T20:52:34.870Z" host="app.diagrams.net" agent="Mozilla/5.0 (Windows NT 10.0; Win64; x64) AppleWebKit/537.36 (KHTML, like Gecko) Chrome/120.0.0.0 Safari/537.36" etag="46LE4M6ttszkVmkcgxDm" version="22.1.17" type="github">
  <diagram id="Ht1M8jgEwFfnCIfOTk4-" name="Page-1">
    <mxGraphModel dx="2206" dy="1200" grid="1" gridSize="10" guides="1" tooltips="1" connect="1" arrows="1" fold="1" page="1" pageScale="1" pageWidth="4681" pageHeight="3300" math="0" shadow="0">
      <root>
        <mxCell id="0" />
        <mxCell id="1" parent="0" />
        <mxCell id="Ii3KyEK9PcY43f4jcfYw-1" value="AWS Cloud" style="points=[[0,0],[0.25,0],[0.5,0],[0.75,0],[1,0],[1,0.25],[1,0.5],[1,0.75],[1,1],[0.75,1],[0.5,1],[0.25,1],[0,1],[0,0.75],[0,0.5],[0,0.25]];outlineConnect=0;gradientColor=none;html=1;whiteSpace=wrap;fontSize=12;fontStyle=0;container=1;pointerEvents=0;collapsible=0;recursiveResize=0;shape=mxgraph.aws4.group;grIcon=mxgraph.aws4.group_aws_cloud;strokeColor=#232F3E;fillColor=none;verticalAlign=top;align=left;spacingLeft=30;fontColor=#232F3E;dashed=0;" vertex="1" parent="1">
          <mxGeometry x="460" y="100" width="1840" height="1690" as="geometry" />
        </mxCell>
        <mxCell id="Ii3KyEK9PcY43f4jcfYw-13" value="VPC" style="points=[[0,0],[0.25,0],[0.5,0],[0.75,0],[1,0],[1,0.25],[1,0.5],[1,0.75],[1,1],[0.75,1],[0.5,1],[0.25,1],[0,1],[0,0.75],[0,0.5],[0,0.25]];outlineConnect=0;gradientColor=none;html=1;whiteSpace=wrap;fontSize=12;fontStyle=0;container=1;pointerEvents=0;collapsible=0;recursiveResize=0;shape=mxgraph.aws4.group;grIcon=mxgraph.aws4.group_vpc2;strokeColor=#8C4FFF;fillColor=none;verticalAlign=top;align=left;spacingLeft=30;fontColor=#AAB7B8;dashed=0;" vertex="1" parent="Ii3KyEK9PcY43f4jcfYw-1">
          <mxGeometry x="200" y="230" width="1640" height="1460" as="geometry" />
        </mxCell>
        <mxCell id="Ii3KyEK9PcY43f4jcfYw-19" value="Region" style="points=[[0,0],[0.25,0],[0.5,0],[0.75,0],[1,0],[1,0.25],[1,0.5],[1,0.75],[1,1],[0.75,1],[0.5,1],[0.25,1],[0,1],[0,0.75],[0,0.5],[0,0.25]];outlineConnect=0;gradientColor=none;html=1;whiteSpace=wrap;fontSize=12;fontStyle=0;container=1;pointerEvents=0;collapsible=0;recursiveResize=0;shape=mxgraph.aws4.group;grIcon=mxgraph.aws4.group_region;strokeColor=#00A4A6;fillColor=none;verticalAlign=top;align=left;spacingLeft=30;fontColor=#147EBA;dashed=1;" vertex="1" parent="Ii3KyEK9PcY43f4jcfYw-1">
          <mxGeometry x="70" y="60" width="1670" height="1590" as="geometry" />
        </mxCell>
        <mxCell id="Ii3KyEK9PcY43f4jcfYw-10" value="Availability Zone" style="fillColor=none;strokeColor=#147EBA;dashed=1;verticalAlign=top;fontStyle=0;fontColor=#147EBA;whiteSpace=wrap;html=1;" vertex="1" parent="Ii3KyEK9PcY43f4jcfYw-19">
          <mxGeometry x="420" y="630" width="180" height="600" as="geometry" />
        </mxCell>
        <mxCell id="Ii3KyEK9PcY43f4jcfYw-2" value="Public subnet" style="points=[[0,0],[0.25,0],[0.5,0],[0.75,0],[1,0],[1,0.25],[1,0.5],[1,0.75],[1,1],[0.75,1],[0.5,1],[0.25,1],[0,1],[0,0.75],[0,0.5],[0,0.25]];outlineConnect=0;gradientColor=none;html=1;whiteSpace=wrap;fontSize=12;fontStyle=0;container=1;pointerEvents=0;collapsible=0;recursiveResize=0;shape=mxgraph.aws4.group;grIcon=mxgraph.aws4.group_security_group;grStroke=0;strokeColor=#7AA116;fillColor=#F2F6E8;verticalAlign=top;align=left;spacingLeft=30;fontColor=#248814;dashed=0;" vertex="1" parent="Ii3KyEK9PcY43f4jcfYw-19">
          <mxGeometry x="440" y="690" width="130" height="130" as="geometry" />
        </mxCell>
        <mxCell id="Ii3KyEK9PcY43f4jcfYw-7" value="Private subnet" style="points=[[0,0],[0.25,0],[0.5,0],[0.75,0],[1,0],[1,0.25],[1,0.5],[1,0.75],[1,1],[0.75,1],[0.5,1],[0.25,1],[0,1],[0,0.75],[0,0.5],[0,0.25]];outlineConnect=0;gradientColor=none;html=1;whiteSpace=wrap;fontSize=12;fontStyle=0;container=1;pointerEvents=0;collapsible=0;recursiveResize=0;shape=mxgraph.aws4.group;grIcon=mxgraph.aws4.group_security_group;grStroke=0;strokeColor=#00A4A6;fillColor=#E6F6F7;verticalAlign=top;align=left;spacingLeft=30;fontColor=#147EBA;dashed=0;" vertex="1" parent="Ii3KyEK9PcY43f4jcfYw-19">
          <mxGeometry x="445" y="1000" width="135" height="230" as="geometry" />
        </mxCell>
        <mxCell id="Ii3KyEK9PcY43f4jcfYw-58" value="" style="sketch=0;outlineConnect=0;fontColor=#232F3E;gradientColor=none;fillColor=#C925D1;strokeColor=none;dashed=0;verticalLabelPosition=bottom;verticalAlign=top;align=center;html=1;fontSize=12;fontStyle=0;aspect=fixed;pointerEvents=1;shape=mxgraph.aws4.rds_mysql_instance;" vertex="1" parent="Ii3KyEK9PcY43f4jcfYw-7">
          <mxGeometry x="21" y="152" width="78" height="78" as="geometry" />
        </mxCell>
        <mxCell id="Ii3KyEK9PcY43f4jcfYw-12" value="Availability Zone" style="fillColor=none;strokeColor=#147EBA;dashed=1;verticalAlign=top;fontStyle=0;fontColor=#147EBA;whiteSpace=wrap;html=1;" vertex="1" parent="Ii3KyEK9PcY43f4jcfYw-19">
          <mxGeometry x="1170" y="598" width="230" height="620" as="geometry" />
        </mxCell>
        <mxCell id="Ii3KyEK9PcY43f4jcfYw-9" value="Private subnet" style="points=[[0,0],[0.25,0],[0.5,0],[0.75,0],[1,0],[1,0.25],[1,0.5],[1,0.75],[1,1],[0.75,1],[0.5,1],[0.25,1],[0,1],[0,0.75],[0,0.5],[0,0.25]];outlineConnect=0;gradientColor=none;html=1;whiteSpace=wrap;fontSize=12;fontStyle=0;container=1;pointerEvents=0;collapsible=0;recursiveResize=0;shape=mxgraph.aws4.group;grIcon=mxgraph.aws4.group_security_group;grStroke=0;strokeColor=#00A4A6;fillColor=#E6F6F7;verticalAlign=top;align=left;spacingLeft=30;fontColor=#147EBA;dashed=0;" vertex="1" parent="Ii3KyEK9PcY43f4jcfYw-19">
          <mxGeometry x="1240" y="990" width="140" height="240" as="geometry" />
        </mxCell>
        <mxCell id="Ii3KyEK9PcY43f4jcfYw-6" value="Public subnet" style="points=[[0,0],[0.25,0],[0.5,0],[0.75,0],[1,0],[1,0.25],[1,0.5],[1,0.75],[1,1],[0.75,1],[0.5,1],[0.25,1],[0,1],[0,0.75],[0,0.5],[0,0.25]];outlineConnect=0;gradientColor=none;html=1;whiteSpace=wrap;fontSize=12;fontStyle=0;container=1;pointerEvents=0;collapsible=0;recursiveResize=0;shape=mxgraph.aws4.group;grIcon=mxgraph.aws4.group_security_group;grStroke=0;strokeColor=#7AA116;fillColor=#F2F6E8;verticalAlign=top;align=left;spacingLeft=30;fontColor=#248814;dashed=0;" vertex="1" parent="Ii3KyEK9PcY43f4jcfYw-19">
          <mxGeometry x="1230" y="670" width="130" height="130" as="geometry" />
        </mxCell>
        <mxCell id="Ii3KyEK9PcY43f4jcfYw-11" value="Availability Zone" style="fillColor=none;strokeColor=#147EBA;dashed=1;verticalAlign=top;fontStyle=0;fontColor=#147EBA;whiteSpace=wrap;html=1;" vertex="1" parent="Ii3KyEK9PcY43f4jcfYw-19">
          <mxGeometry x="800" y="610" width="210" height="620" as="geometry" />
        </mxCell>
        <mxCell id="Ii3KyEK9PcY43f4jcfYw-8" value="Private subnet" style="points=[[0,0],[0.25,0],[0.5,0],[0.75,0],[1,0],[1,0.25],[1,0.5],[1,0.75],[1,1],[0.75,1],[0.5,1],[0.25,1],[0,1],[0,0.75],[0,0.5],[0,0.25]];outlineConnect=0;gradientColor=none;html=1;whiteSpace=wrap;fontSize=12;fontStyle=0;container=1;pointerEvents=0;collapsible=0;recursiveResize=0;shape=mxgraph.aws4.group;grIcon=mxgraph.aws4.group_security_group;grStroke=0;strokeColor=#00A4A6;fillColor=#E6F6F7;verticalAlign=top;align=left;spacingLeft=30;fontColor=#147EBA;dashed=0;" vertex="1" parent="Ii3KyEK9PcY43f4jcfYw-19">
          <mxGeometry x="840" y="990" width="150" height="240" as="geometry" />
        </mxCell>
        <mxCell id="Ii3KyEK9PcY43f4jcfYw-3" value="Public subnet" style="points=[[0,0],[0.25,0],[0.5,0],[0.75,0],[1,0],[1,0.25],[1,0.5],[1,0.75],[1,1],[0.75,1],[0.5,1],[0.25,1],[0,1],[0,0.75],[0,0.5],[0,0.25]];outlineConnect=0;gradientColor=none;html=1;whiteSpace=wrap;fontSize=12;fontStyle=0;container=1;pointerEvents=0;collapsible=0;recursiveResize=0;shape=mxgraph.aws4.group;grIcon=mxgraph.aws4.group_security_group;grStroke=0;strokeColor=#7AA116;fillColor=#F2F6E8;verticalAlign=top;align=left;spacingLeft=30;fontColor=#248814;dashed=0;" vertex="1" parent="Ii3KyEK9PcY43f4jcfYw-19">
          <mxGeometry x="850" y="660" width="130" height="130" as="geometry" />
        </mxCell>
        <mxCell id="Ii3KyEK9PcY43f4jcfYw-25" value="" style="outlineConnect=0;dashed=0;verticalLabelPosition=bottom;verticalAlign=top;align=center;html=1;shape=mxgraph.aws3.vpc_nat_gateway;fillColor=#F58534;gradientColor=none;" vertex="1" parent="Ii3KyEK9PcY43f4jcfYw-3">
          <mxGeometry x="30.5" y="40" width="69" height="72" as="geometry" />
        </mxCell>
        <mxCell id="Ii3KyEK9PcY43f4jcfYw-16" value="" style="sketch=0;outlineConnect=0;fontColor=#232F3E;gradientColor=none;fillColor=#8C4FFF;strokeColor=none;dashed=0;verticalLabelPosition=bottom;verticalAlign=top;align=center;html=1;fontSize=12;fontStyle=0;aspect=fixed;pointerEvents=1;shape=mxgraph.aws4.internet_gateway;" vertex="1" parent="Ii3KyEK9PcY43f4jcfYw-19">
          <mxGeometry x="890" y="120" width="78" height="78" as="geometry" />
        </mxCell>
        <mxCell id="Ii3KyEK9PcY43f4jcfYw-18" value="" style="outlineConnect=0;dashed=0;verticalLabelPosition=bottom;verticalAlign=top;align=center;html=1;shape=mxgraph.aws3.application_load_balancer;fillColor=#F58534;gradientColor=none;" vertex="1" parent="Ii3KyEK9PcY43f4jcfYw-19">
          <mxGeometry x="850" y="1318" width="69" height="72" as="geometry" />
        </mxCell>
        <mxCell id="Ii3KyEK9PcY43f4jcfYw-27" value="Auto Scaling group" style="points=[[0,0],[0.25,0],[0.5,0],[0.75,0],[1,0],[1,0.25],[1,0.5],[1,0.75],[1,1],[0.75,1],[0.5,1],[0.25,1],[0,1],[0,0.75],[0,0.5],[0,0.25]];outlineConnect=0;gradientColor=none;html=1;whiteSpace=wrap;fontSize=12;fontStyle=0;container=1;pointerEvents=0;collapsible=0;recursiveResize=0;shape=mxgraph.aws4.groupCenter;grIcon=mxgraph.aws4.group_auto_scaling_group;grStroke=1;strokeColor=#D86613;fillColor=none;verticalAlign=top;align=center;fontColor=#D86613;dashed=1;spacingTop=25;" vertex="1" parent="Ii3KyEK9PcY43f4jcfYw-19">
          <mxGeometry x="450" y="940" width="920" height="230" as="geometry" />
        </mxCell>
        <mxCell id="Ii3KyEK9PcY43f4jcfYw-38" value="" style="outlineConnect=0;dashed=0;verticalLabelPosition=bottom;verticalAlign=top;align=center;html=1;shape=mxgraph.aws3.ec2;fillColor=#F58534;gradientColor=none;" vertex="1" parent="Ii3KyEK9PcY43f4jcfYw-27">
          <mxGeometry x="420.5" y="67" width="76.5" height="93" as="geometry" />
        </mxCell>
        <mxCell id="Ii3KyEK9PcY43f4jcfYw-39" value="" style="outlineConnect=0;dashed=0;verticalLabelPosition=bottom;verticalAlign=top;align=center;html=1;shape=mxgraph.aws3.ec2;fillColor=#F58534;gradientColor=none;" vertex="1" parent="Ii3KyEK9PcY43f4jcfYw-27">
          <mxGeometry x="823.5" y="78.5" width="76.5" height="93" as="geometry" />
        </mxCell>
        <mxCell id="Ii3KyEK9PcY43f4jcfYw-28" value="" style="outlineConnect=0;dashed=0;verticalLabelPosition=bottom;verticalAlign=top;align=center;html=1;shape=mxgraph.aws3.route_table;fillColor=#F58536;gradientColor=none;" vertex="1" parent="Ii3KyEK9PcY43f4jcfYw-19">
          <mxGeometry x="885" y="560" width="50" height="37" as="geometry" />
        </mxCell>
        <mxCell id="Ii3KyEK9PcY43f4jcfYw-29" value="" style="outlineConnect=0;dashed=0;verticalLabelPosition=bottom;verticalAlign=top;align=center;html=1;shape=mxgraph.aws3.route_table;fillColor=#F58536;gradientColor=none;" vertex="1" parent="Ii3KyEK9PcY43f4jcfYw-19">
          <mxGeometry x="885" y="870" width="50" height="39.5" as="geometry" />
        </mxCell>
        <mxCell id="Ii3KyEK9PcY43f4jcfYw-32" value="" style="endArrow=none;dashed=1;html=1;dashPattern=1 3;strokeWidth=2;rounded=0;exitX=0.75;exitY=0;exitDx=0;exitDy=0;entryX=0;entryY=0.5;entryDx=0;entryDy=0;entryPerimeter=0;" edge="1" parent="Ii3KyEK9PcY43f4jcfYw-19" source="Ii3KyEK9PcY43f4jcfYw-2" target="Ii3KyEK9PcY43f4jcfYw-28">
          <mxGeometry width="50" height="50" relative="1" as="geometry">
            <mxPoint x="960" y="900" as="sourcePoint" />
            <mxPoint x="1010" y="850" as="targetPoint" />
          </mxGeometry>
        </mxCell>
        <mxCell id="Ii3KyEK9PcY43f4jcfYw-34" value="" style="endArrow=none;dashed=1;html=1;dashPattern=1 3;strokeWidth=2;rounded=0;entryX=0.5;entryY=0;entryDx=0;entryDy=0;exitX=0.5;exitY=1;exitDx=0;exitDy=0;exitPerimeter=0;" edge="1" parent="Ii3KyEK9PcY43f4jcfYw-19" source="Ii3KyEK9PcY43f4jcfYw-28" target="Ii3KyEK9PcY43f4jcfYw-3">
          <mxGeometry width="50" height="50" relative="1" as="geometry">
            <mxPoint x="960" y="900" as="sourcePoint" />
            <mxPoint x="1010" y="850" as="targetPoint" />
          </mxGeometry>
        </mxCell>
        <mxCell id="Ii3KyEK9PcY43f4jcfYw-35" value="" style="endArrow=none;dashed=1;html=1;dashPattern=1 3;strokeWidth=2;rounded=0;entryX=0.5;entryY=0;entryDx=0;entryDy=0;exitX=1;exitY=0.5;exitDx=0;exitDy=0;exitPerimeter=0;" edge="1" parent="Ii3KyEK9PcY43f4jcfYw-19" source="Ii3KyEK9PcY43f4jcfYw-28" target="Ii3KyEK9PcY43f4jcfYw-6">
          <mxGeometry width="50" height="50" relative="1" as="geometry">
            <mxPoint x="960" y="900" as="sourcePoint" />
            <mxPoint x="1010" y="850" as="targetPoint" />
          </mxGeometry>
        </mxCell>
        <mxCell id="Ii3KyEK9PcY43f4jcfYw-36" value="" style="outlineConnect=0;dashed=0;verticalLabelPosition=bottom;verticalAlign=top;align=center;html=1;shape=mxgraph.aws3.ec2;fillColor=#F58534;gradientColor=none;" vertex="1" parent="Ii3KyEK9PcY43f4jcfYw-19">
          <mxGeometry x="470.5" y="1037" width="76.5" height="93" as="geometry" />
        </mxCell>
        <mxCell id="Ii3KyEK9PcY43f4jcfYw-40" value="" style="endArrow=none;dashed=1;html=1;dashPattern=1 3;strokeWidth=2;rounded=0;exitX=0.5;exitY=0;exitDx=0;exitDy=0;entryX=0.5;entryY=1;entryDx=0;entryDy=0;entryPerimeter=0;" edge="1" parent="Ii3KyEK9PcY43f4jcfYw-19" source="Ii3KyEK9PcY43f4jcfYw-7" target="Ii3KyEK9PcY43f4jcfYw-29">
          <mxGeometry width="50" height="50" relative="1" as="geometry">
            <mxPoint x="960" y="900" as="sourcePoint" />
            <mxPoint x="1010" y="850" as="targetPoint" />
          </mxGeometry>
        </mxCell>
        <mxCell id="Ii3KyEK9PcY43f4jcfYw-41" value="" style="endArrow=none;dashed=1;html=1;dashPattern=1 3;strokeWidth=2;rounded=0;exitX=0.5;exitY=0;exitDx=0;exitDy=0;exitPerimeter=0;entryX=0.5;entryY=1;entryDx=0;entryDy=0;entryPerimeter=0;" edge="1" parent="Ii3KyEK9PcY43f4jcfYw-19" source="Ii3KyEK9PcY43f4jcfYw-29" target="Ii3KyEK9PcY43f4jcfYw-25">
          <mxGeometry width="50" height="50" relative="1" as="geometry">
            <mxPoint x="960" y="900" as="sourcePoint" />
            <mxPoint x="1010" y="850" as="targetPoint" />
          </mxGeometry>
        </mxCell>
        <mxCell id="Ii3KyEK9PcY43f4jcfYw-42" value="" style="endArrow=none;dashed=1;html=1;dashPattern=1 3;strokeWidth=2;rounded=0;exitX=0.5;exitY=0;exitDx=0;exitDy=0;entryX=0.5;entryY=1;entryDx=0;entryDy=0;entryPerimeter=0;" edge="1" parent="Ii3KyEK9PcY43f4jcfYw-19" source="Ii3KyEK9PcY43f4jcfYw-8" target="Ii3KyEK9PcY43f4jcfYw-29">
          <mxGeometry width="50" height="50" relative="1" as="geometry">
            <mxPoint x="960" y="900" as="sourcePoint" />
            <mxPoint x="1010" y="850" as="targetPoint" />
          </mxGeometry>
        </mxCell>
        <mxCell id="Ii3KyEK9PcY43f4jcfYw-43" value="" style="endArrow=none;dashed=1;html=1;dashPattern=1 3;strokeWidth=2;rounded=0;entryX=0.5;entryY=0;entryDx=0;entryDy=0;entryPerimeter=0;exitX=1;exitY=1;exitDx=0;exitDy=0;exitPerimeter=0;" edge="1" parent="Ii3KyEK9PcY43f4jcfYw-19" source="Ii3KyEK9PcY43f4jcfYw-29" target="Ii3KyEK9PcY43f4jcfYw-39">
          <mxGeometry width="50" height="50" relative="1" as="geometry">
            <mxPoint x="960" y="900" as="sourcePoint" />
            <mxPoint x="1010" y="850" as="targetPoint" />
          </mxGeometry>
        </mxCell>
        <mxCell id="Ii3KyEK9PcY43f4jcfYw-44" value="" style="endArrow=none;dashed=1;html=1;dashPattern=1 3;strokeWidth=2;rounded=0;entryX=0.5;entryY=0;entryDx=0;entryDy=0;entryPerimeter=0;" edge="1" parent="Ii3KyEK9PcY43f4jcfYw-19" source="Ii3KyEK9PcY43f4jcfYw-16" target="Ii3KyEK9PcY43f4jcfYw-28">
          <mxGeometry width="50" height="50" relative="1" as="geometry">
            <mxPoint x="960" y="540" as="sourcePoint" />
            <mxPoint x="1010" y="490" as="targetPoint" />
          </mxGeometry>
        </mxCell>
        <mxCell id="Ii3KyEK9PcY43f4jcfYw-46" value="" style="outlineConnect=0;dashed=0;verticalLabelPosition=bottom;verticalAlign=top;align=center;html=1;shape=mxgraph.aws3.route_53;fillColor=#F58536;gradientColor=none;" vertex="1" parent="Ii3KyEK9PcY43f4jcfYw-19">
          <mxGeometry x="860" y="1460" width="88" height="80" as="geometry" />
        </mxCell>
        <mxCell id="Ii3KyEK9PcY43f4jcfYw-49" value="" style="shape=flexArrow;endArrow=classic;html=1;rounded=0;exitX=0.5;exitY=0;exitDx=0;exitDy=0;exitPerimeter=0;" edge="1" parent="Ii3KyEK9PcY43f4jcfYw-19" source="Ii3KyEK9PcY43f4jcfYw-46">
          <mxGeometry width="50" height="50" relative="1" as="geometry">
            <mxPoint x="960" y="540" as="sourcePoint" />
            <mxPoint x="890" y="1390" as="targetPoint" />
          </mxGeometry>
        </mxCell>
        <mxCell id="Ii3KyEK9PcY43f4jcfYw-51" value="" style="shape=flexArrow;endArrow=classic;html=1;rounded=0;exitX=0.5;exitY=0;exitDx=0;exitDy=0;exitPerimeter=0;entryX=0.5;entryY=1;entryDx=0;entryDy=0;entryPerimeter=0;" edge="1" parent="Ii3KyEK9PcY43f4jcfYw-19" source="Ii3KyEK9PcY43f4jcfYw-18" target="Ii3KyEK9PcY43f4jcfYw-36">
          <mxGeometry width="50" height="50" relative="1" as="geometry">
            <mxPoint x="930" y="1410" as="sourcePoint" />
            <mxPoint x="980" y="1360" as="targetPoint" />
          </mxGeometry>
        </mxCell>
        <mxCell id="Ii3KyEK9PcY43f4jcfYw-53" value="" style="shape=flexArrow;endArrow=classic;html=1;rounded=0;" edge="1" parent="Ii3KyEK9PcY43f4jcfYw-19" target="Ii3KyEK9PcY43f4jcfYw-39">
          <mxGeometry width="50" height="50" relative="1" as="geometry">
            <mxPoint x="885" y="1320" as="sourcePoint" />
            <mxPoint x="980" y="1360" as="targetPoint" />
          </mxGeometry>
        </mxCell>
        <mxCell id="Ii3KyEK9PcY43f4jcfYw-70" style="edgeStyle=orthogonalEdgeStyle;rounded=0;orthogonalLoop=1;jettySize=auto;html=1;" edge="1" parent="Ii3KyEK9PcY43f4jcfYw-19" source="Ii3KyEK9PcY43f4jcfYw-61" target="Ii3KyEK9PcY43f4jcfYw-58">
          <mxGeometry relative="1" as="geometry">
            <Array as="points">
              <mxPoint x="280" y="830" />
              <mxPoint x="280" y="1191" />
            </Array>
          </mxGeometry>
        </mxCell>
        <mxCell id="Ii3KyEK9PcY43f4jcfYw-72" style="edgeStyle=orthogonalEdgeStyle;rounded=0;orthogonalLoop=1;jettySize=auto;html=1;" edge="1" parent="Ii3KyEK9PcY43f4jcfYw-19" source="Ii3KyEK9PcY43f4jcfYw-61" target="Ii3KyEK9PcY43f4jcfYw-60">
          <mxGeometry relative="1" as="geometry">
            <Array as="points">
              <mxPoint x="1540" y="830" />
              <mxPoint x="1540" y="1179" />
            </Array>
          </mxGeometry>
        </mxCell>
        <mxCell id="Ii3KyEK9PcY43f4jcfYw-73" style="edgeStyle=orthogonalEdgeStyle;rounded=0;orthogonalLoop=1;jettySize=auto;html=1;" edge="1" parent="Ii3KyEK9PcY43f4jcfYw-19" source="Ii3KyEK9PcY43f4jcfYw-61" target="Ii3KyEK9PcY43f4jcfYw-59">
          <mxGeometry relative="1" as="geometry">
            <Array as="points">
              <mxPoint x="1100" y="819" />
              <mxPoint x="1100" y="1179" />
            </Array>
          </mxGeometry>
        </mxCell>
        <mxCell id="Ii3KyEK9PcY43f4jcfYw-61" value="" style="sketch=0;outlineConnect=0;fontColor=#232F3E;gradientColor=none;fillColor=#C925D1;strokeColor=none;dashed=0;verticalLabelPosition=bottom;verticalAlign=top;align=center;html=1;fontSize=12;fontStyle=0;aspect=fixed;pointerEvents=1;shape=mxgraph.aws4.rds_mysql_instance;" vertex="1" parent="Ii3KyEK9PcY43f4jcfYw-19">
          <mxGeometry x="866" y="780" width="78" height="78" as="geometry" />
        </mxCell>
        <mxCell id="Ii3KyEK9PcY43f4jcfYw-59" value="" style="sketch=0;outlineConnect=0;fontColor=#232F3E;gradientColor=none;fillColor=#C925D1;strokeColor=none;dashed=0;verticalLabelPosition=bottom;verticalAlign=top;align=center;html=1;fontSize=12;fontStyle=0;aspect=fixed;pointerEvents=1;shape=mxgraph.aws4.rds_mysql_instance;" vertex="1" parent="Ii3KyEK9PcY43f4jcfYw-19">
          <mxGeometry x="902" y="1140" width="78" height="78" as="geometry" />
        </mxCell>
        <mxCell id="Ii3KyEK9PcY43f4jcfYw-64" value="" style="shape=flexArrow;endArrow=classic;html=1;rounded=0;" edge="1" parent="Ii3KyEK9PcY43f4jcfYw-19" source="Ii3KyEK9PcY43f4jcfYw-36" target="Ii3KyEK9PcY43f4jcfYw-61">
          <mxGeometry width="50" height="50" relative="1" as="geometry">
            <mxPoint x="770" y="1400" as="sourcePoint" />
            <mxPoint x="820" y="1350" as="targetPoint" />
          </mxGeometry>
        </mxCell>
        <mxCell id="Ii3KyEK9PcY43f4jcfYw-60" value="" style="sketch=0;outlineConnect=0;fontColor=#232F3E;gradientColor=none;fillColor=#C925D1;strokeColor=none;dashed=0;verticalLabelPosition=bottom;verticalAlign=top;align=center;html=1;fontSize=12;fontStyle=0;aspect=fixed;pointerEvents=1;shape=mxgraph.aws4.rds_mysql_instance;" vertex="1" parent="Ii3KyEK9PcY43f4jcfYw-19">
          <mxGeometry x="1272" y="1140" width="78" height="78" as="geometry" />
        </mxCell>
        <mxCell id="Ii3KyEK9PcY43f4jcfYw-66" value="" style="shape=flexArrow;endArrow=classic;html=1;rounded=0;" edge="1" parent="Ii3KyEK9PcY43f4jcfYw-19" source="Ii3KyEK9PcY43f4jcfYw-38" target="Ii3KyEK9PcY43f4jcfYw-61">
          <mxGeometry width="50" height="50" relative="1" as="geometry">
            <mxPoint x="850" y="1130" as="sourcePoint" />
            <mxPoint x="900" y="1080" as="targetPoint" />
          </mxGeometry>
        </mxCell>
        <mxCell id="Ii3KyEK9PcY43f4jcfYw-67" value="" style="shape=flexArrow;endArrow=classic;html=1;rounded=0;" edge="1" parent="Ii3KyEK9PcY43f4jcfYw-19" source="Ii3KyEK9PcY43f4jcfYw-39">
          <mxGeometry width="50" height="50" relative="1" as="geometry">
            <mxPoint x="890.94" y="1122.1" as="sourcePoint" />
            <mxPoint x="939.0604645367553" y="850.0006459830771" as="targetPoint" />
          </mxGeometry>
        </mxCell>
        <mxCell id="Ii3KyEK9PcY43f4jcfYw-76" value="" style="endArrow=classic;html=1;rounded=0;exitX=0;exitY=0.79;exitDx=0;exitDy=0;exitPerimeter=0;" edge="1" parent="Ii3KyEK9PcY43f4jcfYw-19" source="Ii3KyEK9PcY43f4jcfYw-36" target="Ii3KyEK9PcY43f4jcfYw-58">
          <mxGeometry width="50" height="50" relative="1" as="geometry">
            <mxPoint x="850" y="1130" as="sourcePoint" />
            <mxPoint x="900" y="1080" as="targetPoint" />
          </mxGeometry>
        </mxCell>
        <mxCell id="Ii3KyEK9PcY43f4jcfYw-77" value="" style="endArrow=classic;html=1;rounded=0;exitX=1;exitY=0.79;exitDx=0;exitDy=0;exitPerimeter=0;" edge="1" parent="Ii3KyEK9PcY43f4jcfYw-19" source="Ii3KyEK9PcY43f4jcfYw-38" target="Ii3KyEK9PcY43f4jcfYw-59">
          <mxGeometry width="50" height="50" relative="1" as="geometry">
            <mxPoint x="850" y="1130" as="sourcePoint" />
            <mxPoint x="910" y="1080" as="targetPoint" />
          </mxGeometry>
        </mxCell>
        <mxCell id="Ii3KyEK9PcY43f4jcfYw-78" value="" style="endArrow=classic;html=1;rounded=0;exitX=0.5;exitY=1;exitDx=0;exitDy=0;exitPerimeter=0;" edge="1" parent="Ii3KyEK9PcY43f4jcfYw-19" source="Ii3KyEK9PcY43f4jcfYw-39" target="Ii3KyEK9PcY43f4jcfYw-60">
          <mxGeometry width="50" height="50" relative="1" as="geometry">
            <mxPoint x="850" y="1130" as="sourcePoint" />
            <mxPoint x="900" y="1080" as="targetPoint" />
          </mxGeometry>
        </mxCell>
        <mxCell id="Ii3KyEK9PcY43f4jcfYw-45" value="" style="image;points=[];aspect=fixed;html=1;align=center;shadow=0;dashed=0;image=img/lib/allied_telesis/computer_and_terminals/Personal_Computer_with_Server.svg;" vertex="1" parent="1">
          <mxGeometry x="1360" y="1790" width="62.400000000000006" height="62.400000000000006" as="geometry" />
        </mxCell>
        <mxCell id="Ii3KyEK9PcY43f4jcfYw-48" value="" style="shape=flexArrow;endArrow=classic;html=1;rounded=0;" edge="1" parent="1" source="Ii3KyEK9PcY43f4jcfYw-45">
          <mxGeometry width="50" height="50" relative="1" as="geometry">
            <mxPoint x="1490" y="340" as="sourcePoint" />
            <mxPoint x="1420" y="1700" as="targetPoint" />
          </mxGeometry>
        </mxCell>
        <mxCell id="Ii3KyEK9PcY43f4jcfYw-52" value="" style="shape=flexArrow;endArrow=classic;html=1;rounded=0;" edge="1" parent="1" target="Ii3KyEK9PcY43f4jcfYw-38">
          <mxGeometry width="50" height="50" relative="1" as="geometry">
            <mxPoint x="1410" y="1480" as="sourcePoint" />
            <mxPoint x="1510" y="1520" as="targetPoint" />
          </mxGeometry>
        </mxCell>
      </root>
    </mxGraphModel>
  </diagram>
</mxfile>
